<?xml version="1.0" standalone="no"?>
<!DOCTYPE svg PUBLIC "-//W3C//DTD SVG 20010904//EN"
 "http://www.w3.org/TR/2001/REC-SVG-20010904/DTD/svg10.dtd">
<svg version="1.0" xmlns="http://www.w3.org/2000/svg"
 width="1130.000000pt" height="635.000000pt" viewBox="0 0 1130.000000 635.000000"
 preserveAspectRatio="xMidYMid meet">

<g transform="translate(0.000000,635.000000) scale(0.100000,-0.100000)"
fill="#000000" stroke="none">
<path d="M0 3175 l0 -3175 5650 0 5650 0 0 3175 0 3175 -5650 0 -5650 0 0
-3175z m2176 2079 c132 -62 187 -201 188 -479 1 -157 -12 -230 -55 -321 -57
-120 -148 -184 -263 -184 -164 0 -265 85 -313 263 -26 93 -25 399 0 482 45
145 118 227 237 266 42 14 149 0 206 -27z m-1157 -11 c45 -174 153 -581 158
-593 3 -8 40 126 83 298 42 172 82 318 87 323 6 6 50 7 115 3 l105 -7 6 -201
c4 -110 10 -335 13 -499 l7 -298 -89 3 -89 3 -8 245 c-9 286 -16 384 -27 355
-4 -11 -36 -140 -71 -287 l-64 -268 -62 0 c-50 0 -63 3 -67 18 -3 9 -35 130
-72 267 -36 138 -70 257 -75 265 -5 10 -9 -8 -10 -50 -1 -36 -4 -173 -8 -305
l-6 -240 -83 -3 -84 -3 6 463 c4 255 9 482 12 506 l5 42 104 0 104 0 10 -37z
m1659 -170 l2 -203 110 0 110 0 2 203 3 202 85 0 85 0 3 -480 c1 -264 0 -490
-3 -502 -5 -22 -11 -23 -90 -23 l-85 0 0 220 0 220 -110 0 -110 0 -2 -217 -3
-218 -87 -3 -88 -3 0 499 c0 274 3 502 7 506 4 4 43 5 88 4 l80 -3 3 -202z
m962 110 c12 -54 57 -244 100 -423 93 -383 110 -456 110 -476 0 -11 -19 -14
-94 -14 l-95 0 -11 58 c-7 31 -16 78 -22 104 -5 25 -15 48 -21 50 -7 2 -59 2
-116 -1 l-105 -6 -17 -92 c-10 -51 -20 -97 -24 -103 -7 -11 -172 -14 -178 -2
-8 13 220 968 236 990 6 8 42 12 112 12 l103 0 22 -97z m562 -48 c20 -77 56
-211 79 -297 23 -87 45 -158 50 -158 11 0 20 35 94 340 l61 255 109 0 110 0 6
-65 c4 -36 10 -262 14 -503 l8 -438 -84 3 -84 3 -6 60 c-4 33 -8 143 -9 245
-1 102 -5 214 -9 250 l-6 65 -70 -285 -71 -285 -61 -3 -62 -3 -20 68 c-11 37
-47 169 -78 293 l-58 225 -6 -160 c-4 -88 -7 -231 -8 -317 l-1 -158 -85 0 -86
0 6 403 c6 481 11 588 28 599 7 5 55 7 107 6 l95 -3 37 -140z m1067 139 l61
-7 0 -72 c0 -88 6 -85 -162 -85 l-118 0 0 -125 0 -125 115 0 115 0 0 -80 0
-80 -115 0 -116 0 3 -132 3 -133 143 -3 143 -3 -3 -77 -3 -77 -232 -3 -233 -2
0 499 c0 467 1 500 18 504 27 7 313 8 381 1z m542 -23 c60 -23 132 -89 163
-150 37 -70 56 -179 56 -315 0 -211 -36 -331 -126 -420 -72 -72 -129 -89 -309
-90 l-150 -1 -3 497 -2 497 32 4 c18 3 89 4 158 2 99 -2 137 -7 181 -24z
m-3198 -1341 c61 -29 110 -84 136 -154 22 -60 26 -92 13 -100 -5 -3 -45 -8
-89 -12 l-81 -7 -7 32 c-4 17 -21 47 -40 66 -27 29 -39 35 -73 35 -34 0 -48
-6 -75 -34 -54 -53 -62 -100 -62 -346 0 -203 1 -218 23 -261 34 -69 65 -94
117 -94 81 0 122 63 127 196 l3 64 -70 5 -70 5 -3 72 -3 72 33 6 c18 3 92 5
163 3 l130 -3 -1 -130 c-2 -152 -15 -228 -55 -306 -37 -73 -94 -122 -168 -143
-71 -20 -113 -20 -177 -1 -108 32 -187 126 -225 270 -27 102 -30 369 -6 481
34 158 113 262 229 300 60 19 172 12 231 -16z m1910 0 c80 -38 140 -127 149
-225 3 -29 2 -30 -57 -37 -99 -14 -115 -9 -131 37 -30 89 -117 114 -179 52
-43 -43 -55 -85 -66 -247 -17 -241 13 -386 90 -437 89 -59 160 -2 181 144 16
109 20 102 -62 105 l-73 3 -3 73 -3 72 166 0 165 0 0 -67 c0 -321 -84 -481
-267 -515 -182 -34 -337 105 -378 337 -50 282 25 600 163 687 85 53 214 60
305 18z m-3433 10 c114 -15 168 -37 220 -89 56 -56 75 -114 75 -221 -1 -90
-31 -164 -94 -233 l-41 -44 16 -39 c30 -70 144 -396 144 -410 0 -19 -168 -20
-194 -1 -10 7 -42 91 -80 207 l-62 195 -45 0 -44 0 -3 -207 -2 -208 -90 0 -90
0 0 524 0 525 53 4 c104 7 163 6 237 -3z m925 -80 l0 -75 -145 -5 -145 -5 0
-130 0 -130 118 -3 117 -3 0 -79 0 -79 -117 -3 -118 -3 0 -140 0 -140 148 -3
148 -3 -3 -82 -3 -82 -236 -3 -237 -2 -6 22 c-8 31 -8 922 0 982 l7 46 236 -2
236 -3 0 -75z m1097 -312 c3 -361 5 -396 22 -431 31 -62 112 -87 165 -51 53
38 56 58 61 479 l5 390 86 3 86 3 6 -158 c10 -235 8 -472 -4 -558 -37 -272
-154 -377 -371 -336 -121 23 -181 78 -215 196 -14 51 -17 119 -21 458 l-3 397
90 0 90 0 3 -392z m786 -130 l-3 -523 -90 0 -90 0 -3 523 -2 522 95 0 95 0 -2
-522z m1119 170 c0 -406 6 -469 53 -510 50 -46 130 -35 163 22 29 48 37 155
37 503 l0 337 90 0 90 0 0 -347 c0 -192 -5 -376 -10 -411 -17 -100 -47 -169
-99 -222 -55 -57 -102 -74 -211 -75 -153 -1 -228 61 -272 223 -20 70 -22 109
-26 440 -2 200 -1 370 2 378 4 11 26 14 94 14 l89 0 0 -352z m791 -133 c2
-264 0 -499 -3 -523 l-6 -43 -87 3 -87 3 -3 523 -2 523 92 -3 93 -3 3 -480z
m3885 -200 c32 -8 68 -21 80 -29 12 -8 52 -17 89 -21 65 -7 70 -9 181 -96 100
-78 117 -96 137 -141 12 -29 39 -79 60 -110 53 -80 64 -118 56 -197 -4 -36
-11 -109 -16 -161 -7 -84 -12 -102 -44 -154 -20 -33 -36 -67 -36 -76 0 -9 -28
-46 -63 -81 -34 -35 -71 -82 -82 -104 -55 -116 -8 -371 78 -423 18 -11 57 -27
87 -37 121 -39 200 -99 200 -153 0 -26 -73 -88 -372 -315 l-78 -58 -374 3
-375 3 -31 30 c-17 16 -42 53 -55 82 -75 157 -18 259 183 333 46 16 87 30 91
30 5 0 -6 -28 -24 -62 -40 -76 -50 -108 -36 -108 6 0 11 6 11 13 0 6 22 37 49
67 44 49 50 53 56 35 29 -79 46 -109 55 -95 16 25 11 49 -25 130 -19 43 -35
84 -35 92 0 29 38 49 119 63 45 8 111 28 147 45 69 34 96 64 115 133 5 20 20
44 33 52 13 9 39 48 57 88 36 77 42 134 25 243 -8 49 -7 53 15 64 42 22 69 52
75 87 4 20 16 41 31 50 22 14 23 18 9 31 -26 26 -63 1 -76 -50 -8 -30 -26 -56
-57 -85 l-46 -42 7 -95 c9 -121 -5 -156 -61 -156 l-36 0 22 -24 c13 -13 21
-32 19 -43 -3 -15 -13 -18 -56 -17 -57 2 -62 -5 -32 -43 28 -36 25 -56 -15
-98 -39 -42 -56 -42 -67 3 -13 48 -32 53 -24 5 8 -43 -11 -72 -36 -57 -11 6
-11 5 0 -8 17 -21 -4 -29 -53 -21 -26 4 -41 1 -54 -11 -18 -17 -23 -17 -92 3
-40 11 -77 25 -82 30 -4 4 -11 27 -14 50 -5 39 -7 40 -20 21 -21 -30 -40 -24
-62 18 -17 33 -18 44 -8 95 8 38 19 62 33 72 12 8 24 25 28 39 9 36 73 88 99
81 22 -7 53 -36 73 -70 14 -25 34 -11 34 25 0 50 -89 98 -158 84 -35 -7 -85
-56 -100 -99 -9 -26 -11 -27 -11 -7 -1 13 6 37 15 54 9 17 14 44 12 60 -4 27
-1 32 28 44 41 17 81 18 87 2 5 -15 42 14 59 45 14 26 -5 45 -27 27 -9 -7 -30
-14 -48 -16 -18 -1 -58 -6 -91 -10 l-59 -7 8 67 c4 37 18 107 31 154 28 104
30 131 7 139 -46 17 -43 51 12 164 25 51 45 103 45 116 0 23 1 23 25 7 25 -16
87 -16 142 1 17 6 26 0 45 -28 31 -48 90 -85 161 -99 57 -12 61 -15 78 -56 11
-24 19 -65 19 -92 0 -104 111 -169 214 -126 18 7 43 28 55 45 19 26 29 31 62
31 50 0 89 35 89 79 0 42 -28 109 -51 122 -29 15 -34 -11 -14 -71 22 -67 16
-80 -39 -80 -25 0 -48 -5 -52 -11 -3 -6 -27 -24 -52 -40 -87 -55 -182 -28
-182 52 l0 32 51 -6 c49 -6 54 -4 108 37 31 24 68 46 81 48 41 6 36 28 -7 28
-26 0 -57 -11 -96 -35 -66 -40 -108 -44 -137 -15 -28 28 -25 46 13 83 18 18
40 41 48 52 23 33 70 65 95 65 15 0 33 -13 50 -35 30 -40 40 -43 49 -15 20 64
-100 117 -166 72 -14 -9 -45 -38 -70 -64 -49 -52 -95 -70 -113 -45 -9 11 -17
12 -29 6 -25 -14 -34 -4 -29 31 l4 31 -37 -25 c-48 -33 -71 -22 -86 39 -13 50
-15 51 -66 30 -89 -37 -162 -1 -148 74 6 32 5 34 -10 21 -13 -11 -16 -25 -13
-61 5 -45 4 -47 -24 -53 -54 -11 -98 22 -98 73 0 54 128 144 270 189 110 35
152 38 233 17z m-424 -341 c7 -6 -51 -64 -65 -64 -21 0 -37 29 -30 56 7 25 10
26 49 20 23 -4 43 -9 46 -12z m-8350 -549 c53 -45 63 -124 25 -197 -17 -33
-35 -43 -91 -52 l-43 -6 0 140 0 140 39 0 c28 0 49 -8 70 -25z m225 -22 c31
-94 56 -217 46 -227 -6 -6 -11 -4 -14 5 -25 70 -24 69 -64 69 -34 0 -39 -3
-47 -32 -12 -38 -38 -52 -31 -16 3 12 17 74 31 136 22 91 31 112 45 112 13 0
23 -14 34 -47z m254 35 c-3 -7 -19 -14 -36 -16 l-32 -3 0 -120 c0 -92 -3 -120
-12 -117 -9 3 -14 39 -16 121 l-3 117 -29 0 c-20 0 -30 5 -30 15 0 12 16 15
81 15 60 0 80 -3 77 -12z m132 9 c0 -2 15 -63 34 -136 30 -115 32 -132 18
-129 -9 2 -18 12 -20 23 -7 33 -23 45 -62 45 -35 0 -38 -2 -44 -35 -8 -40 -26
-57 -26 -23 0 13 12 76 27 141 25 108 29 117 50 117 13 0 23 -1 23 -3z m388
-9 c-3 -7 -27 -15 -54 -18 -48 -5 -49 -5 -52 -42 -3 -34 -1 -38 20 -38 13 0
30 -5 38 -10 13 -9 13 -11 0 -20 -8 -5 -25 -10 -37 -10 -19 0 -23 -5 -23 -34
0 -58 7 -66 61 -66 37 0 49 -4 49 -15 0 -12 -14 -15 -65 -15 l-65 0 0 140 0
140 66 0 c48 0 65 -3 62 -12z m127 -28 c14 -22 35 -60 47 -85 12 -25 26 -45
30 -45 4 0 8 36 8 79 0 44 5 83 10 86 6 4 10 -42 10 -129 0 -85 -4 -136 -10
-136 -6 0 -31 43 -57 95 -26 52 -51 95 -55 95 -5 0 -8 -43 -8 -95 0 -52 -4
-95 -9 -95 -11 0 -20 135 -14 209 3 34 10 61 14 61 5 0 20 -18 34 -40z m325
18 c35 -38 24 -51 -16 -19 -35 27 -60 16 -80 -35 -31 -82 -6 -164 50 -164 51
0 78 72 31 84 -37 9 -30 26 11 26 l37 0 -5 -50 c-6 -59 -30 -90 -70 -90 -37 0
-73 36 -87 86 -15 53 -14 72 8 120 30 66 82 84 121 42z m140 -112 c0 -124 -9
-170 -24 -130 -3 9 -6 72 -6 140 0 104 2 124 15 124 13 0 15 -22 15 -134z
m127 111 c10 -13 31 -51 47 -86 17 -34 35 -60 40 -58 6 2 13 41 16 88 4 68 6
78 13 50 8 -40 7 -173 -2 -216 l-7 -30 -26 45 c-15 25 -37 66 -49 93 -36 74
-49 62 -49 -44 0 -57 -4 -88 -10 -84 -13 8 -13 265 -1 265 5 0 18 -10 28 -23z
m336 8 c-1 -5 -24 -12 -50 -15 -47 -5 -48 -6 -51 -42 -3 -36 -2 -38 27 -38 16
0 33 -5 37 -11 8 -14 -14 -29 -43 -29 -20 0 -23 -5 -23 -38 0 -49 14 -62 67
-62 32 0 43 -4 43 -15 0 -12 -14 -15 -65 -15 l-65 0 0 140 0 141 63 -3 c35 -2
61 -7 60 -13z m215 3 c-3 -7 -25 -14 -51 -16 l-47 -3 0 -40 c0 -30 4 -39 18
-39 9 0 24 -5 32 -10 13 -9 13 -11 0 -20 -8 -5 -25 -10 -38 -10 -21 0 -23 -4
-20 -47 l3 -48 53 -3 c75 -4 63 -26 -16 -30 l-62 -3 0 141 0 140 66 0 c48 0
65 -3 62 -12z m202 -13 c27 -24 25 -68 -4 -101 l-23 -28 25 -54 c16 -35 21
-57 15 -63 -7 -7 -18 9 -33 45 -25 62 -40 79 -64 70 -11 -4 -16 -19 -16 -49 0
-50 -8 -77 -21 -69 -5 3 -9 66 -9 141 l0 135 55 -4 c34 -3 62 -12 75 -23z
m130 -116 c0 -118 -8 -155 -24 -113 -8 20 -8 202 0 231 14 52 24 3 24 -118z
m138 98 c15 -24 36 -63 46 -86 11 -23 24 -40 30 -38 6 2 13 40 16 88 3 58 7
76 12 59 9 -30 9 -133 0 -210 l-7 -55 -50 94 c-27 52 -56 97 -62 99 -10 3 -13
-19 -13 -85 0 -60 -3 -83 -10 -73 -13 20 -13 250 0 250 6 0 23 -20 38 -43z
m329 19 c37 -32 25 -41 -27 -20 -43 17 -43 17 -62 -5 -24 -30 -25 -136 -2
-169 17 -24 51 -29 76 -9 29 21 27 64 -2 69 -36 5 -27 23 14 26 l39 3 -7 -42
c-12 -73 -26 -94 -68 -97 -48 -4 -83 30 -96 94 -13 58 -1 109 34 145 34 35 64
37 101 5z m334 3 c24 -24 19 -35 -9 -20 -25 13 -52 14 -71 2 -12 -8 -2 -23 47
-76 47 -49 62 -73 62 -95 0 -57 -86 -82 -128 -37 -27 29 -18 42 13 21 29 -19
74 -15 89 8 8 14 -1 28 -57 80 -37 35 -67 69 -67 76 0 21 51 62 76 62 13 0 33
-9 45 -21z m244 6 c0 -5 -15 -11 -32 -13 l-33 -3 0 -120 c0 -99 -3 -119 -15
-119 -12 0 -15 20 -15 120 l0 120 -30 0 c-20 0 -30 5 -30 15 0 13 13 15 78 13
43 -2 77 -7 77 -13z m95 -88 c0 -110 13 -147 50 -147 37 0 50 37 50 147 0 103
13 136 26 67 8 -46 -1 -176 -15 -202 -15 -28 -64 -46 -90 -33 -29 16 -51 99
-51 193 0 63 3 78 15 78 12 0 15 -18 15 -103z m311 87 c41 -21 73 -93 64 -142
-14 -77 -42 -104 -116 -116 -36 -6 -36 -6 -43 31 -8 51 -8 228 1 236 12 12 63
7 94 -9z m277 4 c-3 -7 -27 -15 -54 -18 -48 -5 -49 -5 -52 -42 -3 -34 -1 -38
20 -38 13 0 30 -5 38 -10 13 -9 13 -11 0 -20 -8 -5 -25 -10 -37 -10 -19 0 -23
-5 -23 -34 0 -58 7 -66 61 -66 48 0 65 -12 33 -24 -9 -3 -38 -6 -65 -6 l-49 0
0 140 0 140 66 0 c48 0 65 -3 62 -12z m151 -88 c20 -40 41 -72 46 -71 6 0 12
40 15 88 4 76 6 82 12 48 13 -70 10 -237 -4 -233 -7 2 -33 43 -58 91 -25 48
-51 87 -57 87 -10 0 -13 -26 -14 -92 0 -61 -3 -86 -9 -73 -10 23 -13 216 -4
240 6 15 9 15 21 2 8 -8 32 -47 52 -87z m306 85 c0 -5 -15 -11 -32 -13 l-33
-3 0 -120 c0 -92 -3 -120 -12 -117 -9 3 -14 39 -16 121 l-3 117 -29 0 c-20 0
-30 5 -30 15 0 13 13 15 78 13 43 -2 77 -7 77 -13z m2601 -1336 c89 -28 412
-150 570 -215 33 -13 76 -37 95 -53 43 -36 81 -111 87 -173 5 -49 -14 -165
-28 -173 -4 -3 -59 -9 -122 -15 -172 -15 -239 3 -411 107 -52 31 -64 35 -108
31 -41 -4 -68 -17 -148 -72 -97 -65 -100 -66 -165 -66 -47 0 -66 4 -66 13 0 7
35 47 78 89 65 65 94 85 185 128 81 39 107 56 105 68 -6 31 -75 19 -163 -29
-62 -33 -104 -68 -187 -151 -98 -99 -110 -108 -144 -108 -36 0 -74 22 -74 43
0 11 157 202 201 244 19 17 91 59 162 92 70 34 127 66 127 71 0 26 -125 -2
-201 -45 -73 -40 -176 -131 -239 -211 -33 -41 -60 -80 -60 -85 0 -5 -4 -9 -8
-9 -5 0 -19 32 -31 72 l-21 72 77 79 c103 103 164 149 243 182 104 43 125 81
32 57 -72 -19 -195 -98 -288 -185 -46 -44 -84 -75 -84 -70 0 4 -7 30 -15 56
l-14 48 42 46 c49 53 99 89 185 133 157 80 216 84 388 29z"/>
<path d="M1968 5103 c-33 -36 -45 -60 -59 -119 -14 -63 -13 -380 2 -439 15
-58 54 -100 108 -115 37 -10 45 -9 72 10 62 45 89 152 89 365 0 221 -47 325
-148 325 -29 0 -45 -7 -64 -27z"/>
<path d="M3491 4988 c-6 -29 -24 -117 -40 -195 l-28 -143 78 0 c44 0 79 4 79
9 0 19 -69 374 -74 378 -2 3 -9 -19 -15 -49z"/>
<path d="M5620 4775 l0 -345 56 0 c52 0 59 3 94 38 53 52 71 118 77 272 10
256 -48 380 -178 380 l-49 0 0 -345z"/>
<path d="M987 3763 c-4 -3 -7 -78 -7 -165 l0 -158 43 0 c99 0 177 75 177 173
0 62 -19 97 -67 123 -39 22 -134 40 -146 27z"/>
<path d="M9370 2655 c0 -8 13 -39 30 -70 16 -30 27 -61 24 -69 -12 -32 83 -68
130 -50 28 11 17 22 -35 34 l-50 12 27 29 c22 23 37 29 68 29 44 1 86 24 70
39 -20 19 -145 42 -189 35 -36 -5 -46 -3 -51 10 -8 20 -24 21 -24 1z"/>
<path d="M10146 2512 c-4 -7 -11 -50 -16 -97 -13 -126 -53 -185 -125 -185 -29
0 -41 -16 -25 -35 32 -38 125 -1 164 64 22 39 46 130 46 182 0 40 -32 91 -44
71z"/>
<path d="M9828 2363 c-47 -75 -33 -99 21 -38 33 38 38 57 19 73 -10 7 -20 -2
-40 -35z"/>
<path d="M9633 2243 c3 -10 8 -30 11 -45 4 -16 11 -28 16 -28 16 0 23 46 10
69 -13 26 -43 29 -37 4z"/>
<path d="M9740 2082 c0 -10 6 -27 14 -38 13 -17 15 -17 21 -2 7 18 -10 58 -25
58 -6 0 -10 -8 -10 -18z"/>
<path d="M9587 2005 c17 -23 33 -32 33 -19 0 16 -23 44 -36 44 -13 0 -12 -4 3
-25z"/>
<path d="M9465 1835 c-5 -27 -3 -51 2 -56 7 -7 12 6 16 38 7 63 -9 79 -18 18z"/>
<path d="M10031 1490 c-98 -122 -116 -148 -106 -158 16 -15 222 228 210 248
-12 20 -24 9 -104 -90z"/>
<path d="M9759 1443 c-103 -105 -133 -153 -95 -153 14 0 155 144 183 186 14
22 11 44 -5 44 -4 0 -42 -35 -83 -77z"/>
<path d="M837 2344 c-4 -4 -7 -53 -7 -110 0 -110 5 -121 55 -108 52 13 72 157
27 197 -20 19 -65 31 -75 21z"/>
<path d="M1094 2295 c-14 -35 -9 -87 8 -98 30 -20 43 5 32 59 -9 49 -29 68
-40 39z"/>
<path d="M1485 2276 c-10 -52 -3 -81 21 -84 28 -4 34 15 22 71 -11 56 -34 62
-43 13z"/>
<path d="M3297 2344 c-4 -4 -7 -27 -7 -50 0 -38 3 -44 24 -50 36 -9 66 12 66
45 0 16 -6 33 -13 39 -17 15 -61 25 -70 16z"/>
<path d="M4913 2343 c-9 -3 -13 -30 -13 -86 0 -125 13 -149 65 -125 18 8 27
24 36 63 6 29 9 64 5 79 -11 42 -61 80 -93 69z"/>
</g>
</svg>
